<svg xmlns="http://www.w3.org/2000/svg" width="768" height="512" viewBox="0 0 768 512">
  <rect x="128" y="240" width="512" height="32" stroke-width="4" stroke="#fc4" fill="#ff8" />
  <path stroke-width="2" stroke="#004" fill="#fff" d="M32,80 A16,16 0 0,1 48,64 L208,64 A16,16 0 0,1 224,80 L224,432 A16,16 0 0,1 208,448 L48,448 A16,16 0 0,1 32,432 L32,80 Z" />
  <rect x="40" y="88" width="176" height="312" stroke-width="0" fill="#028" />
  <circle cx="128" cy="424" r="14" stroke-width="2" stroke="#004" fill="none" />
  <rect x="416" y="142" width="320" height="224" stroke-width="2" stroke="#004" fill="#fff" />
  <rect x="570" y="168" width="8" height="172" stroke-width="0" fill="#004" />
  <rect x="602" y="168" width="8" height="172" stroke-width="0" fill="#004" />
  <rect x="634" y="168" width="8" height="172" stroke-width="0" fill="#004" />
  <rect x="666" y="168" width="8" height="172" stroke-width="0" fill="#004" />
  <rect x="536" y="202" width="172" height="8" stroke-width="0" fill="#004" />
  <rect x="536" y="234" width="172" height="8" stroke-width="0" fill="#004" />
  <rect x="536" y="266" width="172" height="8" stroke-width="0" fill="#004" />
  <rect x="536" y="294" width="172" height="8" stroke-width="0" fill="#004" />
  <rect x="558" y="190" width="128" height="128" stroke-width="2" stroke="#004" fill="#028" />
</svg>