<svg xmlns="http://www.w3.org/2000/svg" xmlns:xlink="http://www.w3.org/1999/xlink" width="768" height="384" viewBox="0 0 768 384">
  <defs>
    <g id="node">
      <rect stroke-width="2" stroke="#004" fill="#fff" x="0" y="0" width="192" height="128" rx="16" ry="16"/>
      <text x="96" y="112" text-anchor="middle" fill="#004" font-family="-apple-system, BlinkMacSystemFont, 'Segoe UI', Roboto, Helvetica, Arial, sans-serif" font-weight="300" font-size="20">Browser</text>
      <rect stroke-width="2" stroke="#004" fill="#cef" x="16" y="16" width="160" height="64" rx="16" ry="16"/>
      <text x="96" y="56" text-anchor="middle" fill="#004" font-family="-apple-system, BlinkMacSystemFont, 'Segoe UI', Roboto, Helvetica, Arial, sans-serif" font-weight="300" font-size="20"><tspan font-weight="600">ito</tspan> Library</text>
    </g>
  </defs>
  <path stroke-width="2" stroke="#004" fill="#cef" d="M480,144 L272,144 A32,32 0 0,1 290,70 A36,36 0 0,1 370,40 A40,40 0 0,1 470,70 A36,36 0 0,1 480,144 Z"/>
  <text text-anchor="middle" fill="#004" font-family="-apple-system, BlinkMacSystemFont, 'Segoe UI', Roboto, Helvetica, Arial, sans-serif" font-weight="300" font-size="20">
    <tspan x="384" y="96">Backend Service</tspan>
    <tspan x="384" y="120">(Firebase or Kii Cloud)</tspan>
  </text>
  <use xlink:href="#node" x="32" y="250"/>
  <line x1="352" y1="144" x2="128" y2="250" stroke-width="2" stroke="#004"/>
  <use xlink:href="#node" x="544" y="250"/>
  <line x1="416" y1="144" x2="640" y2="250" stroke-width="2" stroke="#004"/>
  <rect x="128" y="176" width="512" height="32" rx="16" ry="16" fill="#028" fill-opacity="0.8"/>
  <text x="384" y="200" fill="#cef" text-anchor="middle" font-family="-apple-system, BlinkMacSystemFont, 'Segoe UI', Roboto, Helvetica, Arial, sans-serif" font-weight="300" font-size="20">Device-to-Device Messaging via Cloud</text>
  <line x1="224" y1="320" x2="544" y2="320" stroke-width="2" stroke="#004"/>
  <rect x="240" y="304" width="288" height="32" rx="16" ry="16" fill="#028" fill-opacity="0.8"/>
  <text x="384" y="328" fill="#cef" text-anchor="middle" font-family="-apple-system, BlinkMacSystemFont, 'Segoe UI', Roboto, Helvetica, Arial, sans-serif" font-weight="300" font-size="20">WebRTC (Optional)</text>
</svg>